<svg fill="none" viewBox="0 0 920 620" width="920" height="620" xmlns="http://www.w3.org/2000/svg">
  <style>
    .card-bg { fill: #161b22; stroke: #30363d; stroke-width: 1; rx: 12; }
    .card-hover:hover .card-bg { stroke: #38bdf8; }
    .title { fill: #f0f6fc; font-family: 'Segoe UI', Roboto, sans-serif; font-size: 14px; font-weight: 600; }
    .subtitle { fill: #8b949e; font-family: 'Segoe UI', Roboto, sans-serif; font-size: 11px; }
    .icon-bg { fill: #0d1117; stroke: #30363d; stroke-width: 1; rx: 12; }
    .icon-symbol { fill: #38bdf8; font-family: 'Segoe UI', Roboto, sans-serif; font-size: 32px; font-weight: bold; }
  </style>

  <!-- Row 1 -->
  <g class="card-hover" transform="translate(10, 10)">
    <rect class="card-bg" width="290" height="190" />
    <rect class="icon-bg" x="25" y="25" width="240" height="70" />
    <text x="145" y="70" text-anchor="middle" class="icon-symbol">⬢</text>
    <text x="145" y="135" text-anchor="middle" class="title">Data Analytics</text>
    <text x="145" y="155" text-anchor="middle" class="subtitle">Google Professional</text>
  </g>

  <g class="card-hover" transform="translate(315, 10)">
    <rect class="card-bg" width="290" height="190" />
    <rect class="icon-bg" x="25" y="25" width="240" height="70" />
    <text x="145" y="70" text-anchor="middle" class="icon-symbol">◈</text>
    <text x="145" y="135" text-anchor="middle" class="title">UX Design</text>
    <text x="145" y="155" text-anchor="middle" class="subtitle">Google Professional</text>
  </g>

  <g class="card-hover" transform="translate(620, 10)">
    <rect class="card-bg" width="290" height="190" />
    <rect class="icon-bg" x="25" y="25" width="240" height="70" />
    <text x="145" y="70" text-anchor="middle" class="icon-symbol">⌘</text>
    <text x="145" y="135" text-anchor="middle" class="title">AI Engineering</text>
    <text x="145" y="155" text-anchor="middle" class="subtitle">IBM Professional</text>
  </g>

  <!-- Row 2 -->
  <g class="card-hover" transform="translate(10, 215)">
    <rect class="card-bg" width="290" height="190" />
    <rect class="icon-bg" x="25" y="25" width="240" height="70" />
    <text x="145" y="70" text-anchor="middle" class="icon-symbol">⚡</text>
    <text x="145" y="135" text-anchor="middle" class="title">Professional Development</text>
    <text x="145" y="155" text-anchor="middle" class="subtitle">YES4Youth / CapaCiTi</text>
  </g>

  <g class="card-hover" transform="translate(315, 215)">
    <rect class="card-bg" width="290" height="190" />
    <rect class="icon-bg" x="25" y="25" width="240" height="70" />
    <text x="145" y="70" text-anchor="middle" class="icon-symbol">⬢</text>
    <text x="145" y="135" text-anchor="middle" class="title">Python for Everybody</text>
    <text x="145" y="155" text-anchor="middle" class="subtitle">University of Michigan</text>
  </g>

  <g class="card-hover" transform="translate(620, 215)">
    <rect class="card-bg" width="290" height="190" />
    <rect class="icon-bg" x="25" y="25" width="240" height="70" />
    <text x="145" y="70" text-anchor="middle" class="icon-symbol">◈</text>
    <text x="145" y="135" text-anchor="middle" class="title">Machine Learning</text>
    <text x="145" y="155" text-anchor="middle" class="subtitle">DeepLearning.AI</text>
  </g>

  <!-- Row 3 -->
  <g class="card-hover" transform="translate(10, 420)">
    <rect class="card-bg" width="290" height="190" />
    <rect class="icon-bg" x="25" y="25" width="240" height="70" />
    <text x="145" y="70" text-anchor="middle" class="icon-symbol">⌘</text>
    <text x="145" y="135" text-anchor="middle" class="title">Generative AI Specialist</text>
    <text x="145" y="155" text-anchor="middle" class="subtitle">Applied Intelligence</text>
  </g>

  <g class="card-hover" transform="translate(315, 420)">
    <rect class="card-bg" width="290" height="190" />
    <rect class="icon-bg" x="25" y="25" width="240" height="70" />
    <text x="145" y="70" text-anchor="middle" class="icon-symbol">⚡</text>
    <text x="145" y="135" text-anchor="middle" class="title">Cybersecurity Specialist</text>
    <text x="145" y="155" text-anchor="middle" class="subtitle">Cisco Academy</text>
  </g>

  <g class="card-hover" transform="translate(620, 420)">
    <rect class="card-bg" width="290" height="190" />
    <rect class="icon-bg" x="25" y="25" width="240" height="70" />
    <text x="145" y="70" text-anchor="middle" class="icon-symbol">⬢</text>
    <text x="145" y="135" text-anchor="middle" class="title">Cloud Infrastructure</text>
    <text x="145" y="155" text-anchor="middle" class="subtitle">Azure Solution Associate</text>
  </g>
</svg>
